<mxfile host="65bd71144e">
    <diagram id="uVY20YrCMDPBuTKJaFfh" name="Page-1">
        <mxGraphModel dx="955" dy="503" grid="1" gridSize="10" guides="1" tooltips="1" connect="1" arrows="1" fold="1" page="1" pageScale="1" pageWidth="827" pageHeight="1169" math="0" shadow="0">
            <root>
                <mxCell id="0"/>
                <mxCell id="1" parent="0"/>
                <mxCell id="31" value="" style="whiteSpace=wrap;html=1;aspect=fixed;" vertex="1" parent="1">
                    <mxGeometry x="610" y="275" width="185" height="185" as="geometry"/>
                </mxCell>
                <mxCell id="15" value="" style="whiteSpace=wrap;html=1;" vertex="1" parent="1">
                    <mxGeometry x="250" y="90" width="290" height="720" as="geometry"/>
                </mxCell>
                <mxCell id="16" value="Header" style="rounded=0;whiteSpace=wrap;html=1;" vertex="1" parent="1">
                    <mxGeometry x="260" y="100" width="270" height="100" as="geometry"/>
                </mxCell>
                <mxCell id="17" value="Logo" style="whiteSpace=wrap;html=1;aspect=fixed;" vertex="1" parent="1">
                    <mxGeometry x="260" y="100" width="50" height="50" as="geometry"/>
                </mxCell>
                <mxCell id="18" value="nav 1" style="rounded=1;whiteSpace=wrap;html=1;" vertex="1" parent="1">
                    <mxGeometry x="450" y="110" width="80" height="20" as="geometry"/>
                </mxCell>
                <mxCell id="19" value="nav 2" style="rounded=1;whiteSpace=wrap;html=1;" vertex="1" parent="1">
                    <mxGeometry x="270" y="170" width="160" height="30" as="geometry"/>
                </mxCell>
                <mxCell id="20" value="Première affiche" style="whiteSpace=wrap;html=1;aspect=fixed;" vertex="1" parent="1">
                    <mxGeometry x="305" y="230" width="190" height="190" as="geometry"/>
                </mxCell>
                <mxCell id="21" value="carousel de catégories" style="rounded=0;whiteSpace=wrap;html=1;" vertex="1" parent="1">
                    <mxGeometry x="260" y="440" width="270" height="60" as="geometry"/>
                </mxCell>
                <mxCell id="22" value="" style="rounded=0;whiteSpace=wrap;html=1;" vertex="1" parent="1">
                    <mxGeometry x="260" y="510" width="270" height="60" as="geometry"/>
                </mxCell>
                <mxCell id="23" value="" style="rounded=0;whiteSpace=wrap;html=1;" vertex="1" parent="1">
                    <mxGeometry x="260" y="580" width="270" height="60" as="geometry"/>
                </mxCell>
                <mxCell id="24" value="" style="rounded=0;whiteSpace=wrap;html=1;" vertex="1" parent="1">
                    <mxGeometry x="260" y="650" width="270" height="60" as="geometry"/>
                </mxCell>
                <mxCell id="25" value="Footer&lt;br&gt;" style="rounded=0;whiteSpace=wrap;html=1;" vertex="1" parent="1">
                    <mxGeometry x="250" y="750" width="290" height="60" as="geometry"/>
                </mxCell>
                <mxCell id="26" value="" style="whiteSpace=wrap;html=1;" vertex="1" parent="1">
                    <mxGeometry x="560" y="90" width="290" height="720" as="geometry"/>
                </mxCell>
                <mxCell id="27" value="logo" style="whiteSpace=wrap;html=1;aspect=fixed;" vertex="1" parent="1">
                    <mxGeometry x="650" y="150" width="110" height="110" as="geometry"/>
                </mxCell>
                <mxCell id="32" value="Login" style="whiteSpace=wrap;html=1;aspect=fixed;" vertex="1" parent="1">
                    <mxGeometry x="590" y="300" width="240" height="240" as="geometry"/>
                </mxCell>
                <mxCell id="34" value="Input id" style="rounded=1;whiteSpace=wrap;html=1;" vertex="1" parent="1">
                    <mxGeometry x="610" y="330" width="190" height="60" as="geometry"/>
                </mxCell>
                <mxCell id="35" value="input mdp" style="rounded=0;whiteSpace=wrap;html=1;" vertex="1" parent="1">
                    <mxGeometry x="607.5" y="440" width="190" height="60" as="geometry"/>
                </mxCell>
                <mxCell id="39" value="New user" style="rounded=0;whiteSpace=wrap;html=1;" vertex="1" parent="1">
                    <mxGeometry x="590" y="570" width="240" height="180" as="geometry"/>
                </mxCell>
                <mxCell id="38" value="Bouton pour créer un compte" style="rounded=1;whiteSpace=wrap;html=1;" vertex="1" parent="1">
                    <mxGeometry x="595" y="680" width="230" height="40" as="geometry"/>
                </mxCell>
                <mxCell id="36" value="Text pour nouvel utilisateur" style="rounded=1;whiteSpace=wrap;html=1;" vertex="1" parent="1">
                    <mxGeometry x="595" y="610" width="230" height="40" as="geometry"/>
                </mxCell>
            </root>
        </mxGraphModel>
    </diagram>
</mxfile>